<?xml version="1.0" encoding="UTF-8" standalone="no"?>
<svg
   viewBox="0 0 576 512"
   version="1.1"
   id="svg1"
   sodipodi:docname="eye1.svg"
   inkscape:version="1.3.2 (091e20e, 2023-11-25, custom)"
   xmlns:inkscape="http://www.inkscape.org/namespaces/inkscape"
   xmlns:sodipodi="http://sodipodi.sourceforge.net/DTD/sodipodi-0.dtd"
   xmlns="http://www.w3.org/2000/svg"
   xmlns:svg="http://www.w3.org/2000/svg">
  <defs
     id="defs1" />
  <sodipodi:namedview
     id="namedview1"
     pagecolor="#ffffff"
     bordercolor="#000000"
     borderopacity="0.25"
     inkscape:showpageshadow="2"
     inkscape:pageopacity="0.0"
     inkscape:pagecheckerboard="0"
     inkscape:deskcolor="#d1d1d1"
     inkscape:zoom="0.26827245"
     inkscape:cx="421.21358"
     inkscape:cy="-445.44268"
     inkscape:window-width="1920"
     inkscape:window-height="991"
     inkscape:window-x="-9"
     inkscape:window-y="-9"
     inkscape:window-maximized="1"
     inkscape:current-layer="svg1" />
  <!--!Font Awesome Free 6.7.2 by @fontawesome - https://fontawesome.com License - https://fontawesome.com/license/free Copyright 2025 Fonticons, Inc.-->
  <path
     d="M 288,32 C 207.2002,32 142.5003,68.7997 95.4004,112.59961 48.6005,155.99953 17.3,207.99928 2.5,243.69922 c -3.3,7.89998 -3.3,16.70158 0,24.60156 14.8,35.69994 46.1005,87.69969 92.9004,131.09961 C 142.5003,443.20031 207.2002,480 288,480 c 80.7999,0 145.4997,-36.79969 192.5996,-80.59961 46.7999,-43.49992 78.1001,-95.39967 93,-131.09961 3.3,-7.89998 3.3,-16.70158 0,-24.60156 -14.8999,-35.69994 -46.2001,-87.69969 -93,-131.09961 C 433.4997,68.7997 368.7999,32 288,32 Z m 0,80 a 144,144 0 0 1 144,144 144,144 0 0 1 -288,0 144,144 0 0 1 144,-144 z"
     style="display:inline;fill:#ffffff"
     id="path3" />
  <rect
     style="display:inline;fill:#4d4d4d;fill-opacity:1;fill-rule:evenodd;stroke:#000000;stroke-width:0.320616;stroke-opacity:0.5"
     id="rect1-4"
     width="280.56583"
     height="276.83829"
     x="148.00038"
     y="117.38424" />
  <path
     d="m 288.73242,46.910156 c -75.25352,0 -135.51205,34.27498 -179.3789,75.068364 -43.587361,40.42083 -72.739356,88.85021 -86.523442,122.0996 -3.073497,7.35771 -3.073497,15.5544 0,22.91211 13.784086,33.24939 42.936081,81.67879 86.523442,122.09961 43.86685,40.79338 104.12538,75.06836 179.3789,75.06836 75.25353,0 135.51205,-34.27498 179.37891,-75.06836 43.58745,-40.51395 72.73805,-88.85022 86.61523,-122.09961 3.0735,-7.35771 3.0735,-15.5544 0,-22.91211 C 540.84938,210.82873 511.69878,162.39935 468.11133,121.97852 424.24447,81.185136 363.98595,46.910156 288.73242,46.910156 Z m 0,74.417974 a 134.11533,134.11533 0 0 1 134.11524,134.20507 134.11533,134.11533 0 1 1 -268.23047,0 134.11533,134.11533 0 0 1 134.11523,-134.20507 z"
     style="display:inline;stroke-width:0.931357"
     id="path5" />
  <path
     d="m 292.55078,166.12305 c -5.40179,-0.18627 -8.56898,5.68284 -6.89258,10.89843 1.9559,5.96068 3.07422,12.29363 3.07422,18.90625 0,32.87686 -26.73055,59.60547 -59.60742,59.60547 -6.61269,0 -12.94556,-1.11641 -18.90625,-3.07226 -5.12239,-1.67644 -11.08278,1.49071 -10.89648,6.89258 0.2794,6.42635 1.21087,12.85099 2.98046,19.27734 12.75959,47.68541 61.842,75.99981 109.52735,63.24023 47.68545,-12.75956 75.99787,-61.84194 63.23828,-109.52734 -10.33799,-38.65125 -44.51822,-64.6374 -82.51758,-66.2207 z"
     style="display:inline;stroke-width:0.931357;fill:#ffffff"
     id="path1" />
</svg>
