<?xml version="1.0" encoding="UTF-8" standalone="no"?>
<svg
   viewBox="0 0 576 512"
   version="1.1"
   id="svg1"
   sodipodi:docname="eye0.svg"
   inkscape:version="1.3.2 (091e20e, 2023-11-25, custom)"
   xmlns:inkscape="http://www.inkscape.org/namespaces/inkscape"
   xmlns:sodipodi="http://sodipodi.sourceforge.net/DTD/sodipodi-0.dtd"
   xmlns="http://www.w3.org/2000/svg"
   xmlns:svg="http://www.w3.org/2000/svg">
  <defs
     id="defs1" />
  <sodipodi:namedview
     id="namedview1"
     pagecolor="#ffffff"
     bordercolor="#000000"
     borderopacity="0.25"
     inkscape:showpageshadow="2"
     inkscape:pageopacity="0.0"
     inkscape:pagecheckerboard="0"
     inkscape:deskcolor="#d1d1d1"
     inkscape:zoom="1.0730898"
     inkscape:cx="248.81422"
     inkscape:cy="211.07274"
     inkscape:window-width="1902"
     inkscape:window-height="981"
     inkscape:window-x="0"
     inkscape:window-y="0"
     inkscape:window-maximized="0"
     inkscape:current-layer="svg1" />
  <!--!Font Awesome Free 6.7.2 by @fontawesome - https://fontawesome.com License - https://fontawesome.com/license/free Copyright 2025 Fonticons, Inc.-->
  <path
     d="M 288,32 C 207.20016,32 142.50029,68.799696 95.400391,112.59961 48.600483,155.99953 17.29997,207.99928 2.5,243.69922 c -3.2999934,7.89998 -3.2999934,16.70158 0,24.60156 14.79997,35.69994 46.100483,87.69969 92.900391,131.09961 C 142.50029,443.20031 207.20016,480 288,480 c 80.79984,0 145.49971,-36.79969 192.59961,-80.59961 46.7999,-43.49992 78.10002,-95.39967 93,-131.09961 3.3,-7.89998 3.3,-16.70158 0,-24.60156 -14.89998,-35.69994 -46.2001,-87.69969 -93,-131.09961 C 433.49971,68.799696 368.79984,32 288,32 Z m 0,80 a 144,144 0 0 1 144,144 144,144 0 0 1 -288,0 144,144 0 0 1 144,-144 z"
     style="display:inline;fill:#ffffff"
     id="path3" />
  <rect
     style="display:inline;opacity:1;fill:#ffffff;fill-opacity:1;fill-rule:evenodd;stroke:#000000;stroke-width:0.320616;stroke-opacity:0.5"
     id="rect1"
     width="280.56583"
     height="276.83829"
     x="148.00035"
     y="117.38425" />
  <path
     d="m 288.73196,46.910216 c -75.2536,0 -135.51236,34.273916 -179.37924,75.067334 -43.587488,40.42087 -72.738944,88.8514 -86.52302,122.10083 -3.073476,7.35771 -3.073476,15.55365 0,22.91137 13.784076,33.24942 42.935532,81.67996 86.52302,122.10082 43.86688,40.79342 104.12564,75.06733 179.37924,75.06733 75.2536,0 135.51236,-34.27391 179.37924,-75.06733 43.58749,-40.51399 72.73894,-88.8514 86.61615,-122.10082 3.07348,-7.35772 3.07348,-15.55366 0,-22.91137 C 540.85014,210.82895 511.69869,162.39842 468.1112,121.97755 424.24432,81.184132 363.98556,46.910216 288.73196,46.910216 Z M 154.61663,255.53407 a 134.11533,134.11533 0 1 1 268.23066,0 134.11533,134.11533 0 1 1 -268.23066,0 z m 134.11533,-59.60682 c 0,32.87689 -26.72993,59.60682 -59.60682,59.60682 -6.61263,0 -12.94585,-1.11764 -18.90653,-3.07349 -5.12246,-1.67644 -11.08314,1.49017 -10.89687,6.89204 0.27941,6.42636 1.21077,12.85272 2.98034,19.27908 12.75958,47.68546 61.84207,75.99869 109.52752,63.2391 47.68545,-12.75958 75.99868,-61.84206 63.2391,-109.52751 -10.33806,-38.65129 -44.51884,-64.63614 -82.51818,-66.21944 -5.40186,-0.18627 -8.56848,5.68127 -6.89204,10.89687 1.95585,5.96068 3.07348,12.2939 3.07348,18.90653 z"
     id="path1-5"
     style="display:inline;fill:#000000;stroke-width:0.931357" />
</svg>
