<?xml version="1.0" encoding="UTF-8" standalone="no"?>
<svg
   viewBox="0 0 576 512"
   version="1.1"
   id="svg1"
   sodipodi:docname="eye2.svg"
   inkscape:version="1.3.2 (091e20e, 2023-11-25, custom)"
   xmlns:inkscape="http://www.inkscape.org/namespaces/inkscape"
   xmlns:sodipodi="http://sodipodi.sourceforge.net/DTD/sodipodi-0.dtd"
   xmlns="http://www.w3.org/2000/svg"
   xmlns:svg="http://www.w3.org/2000/svg">
  <defs
     id="defs1" />
  <sodipodi:namedview
     id="namedview1"
     pagecolor="#ffffff"
     bordercolor="#000000"
     borderopacity="0.25"
     inkscape:showpageshadow="2"
     inkscape:pageopacity="0.0"
     inkscape:pagecheckerboard="0"
     inkscape:deskcolor="#d1d1d1"
     inkscape:zoom="0.26827245"
     inkscape:cx="1435.1082"
     inkscape:cy="-39.139315"
     inkscape:window-width="1920"
     inkscape:window-height="991"
     inkscape:window-x="-9"
     inkscape:window-y="-9"
     inkscape:window-maximized="1"
     inkscape:current-layer="svg1" />
  <!--!Font Awesome Free 6.7.2 by @fontawesome - https://fontawesome.com License - https://fontawesome.com/license/free Copyright 2025 Fonticons, Inc.-->
  <path
     d="M 288,32 C 207.2002,32 142.5003,68.7997 95.4004,112.59961 48.6005,155.99953 17.3,207.99928 2.5,243.69922 c -3.3,7.89998 -3.3,16.70158 0,24.60156 14.8,35.69994 46.1005,87.69969 92.9004,131.09961 C 142.5003,443.20031 207.2002,480 288,480 c 80.7998,0 145.4997,-36.79969 192.5996,-80.59961 46.7999,-43.49992 78.1,-95.39967 93,-131.09961 3.3,-7.89998 3.3,-16.70158 0,-24.60156 -14.9,-35.69994 -46.2001,-87.69969 -93,-131.09961 C 433.4997,68.7997 368.7998,32 288,32 Z m 0,80 a 144,144 0 0 1 144,144 144,144 0 0 1 -288,0 144,144 0 0 1 144,-144 z"
     style="display:inline;fill:#ffffff"
     id="path3" />
  <rect
     style="display:inline;fill:#fff832;fill-opacity:1;fill-rule:evenodd;stroke:#000000;stroke-width:0.320616;stroke-opacity:0.5"
     id="rect1-7"
     width="280.56583"
     height="276.83829"
     x="148.00034"
     y="117.38428" />
  <path
     d="m 288.732,46.91022 c -75.2536,0 -135.5124,34.27391 -179.3793,75.06733 -43.5875,40.42087 -72.7389,88.8514 -86.523,122.10083 -3.0735,7.35771 -3.0735,15.55365 0,22.91137 13.7841,33.24942 42.9355,81.67996 86.523,122.10082 43.8669,40.79342 104.1257,75.06733 179.3793,75.06733 75.2536,0 135.5123,-34.27391 179.3792,-75.06733 43.5875,-40.51399 72.7389,-88.8514 86.6162,-122.10082 3.0734,-7.35772 3.0734,-15.55366 0,-22.91137 C 540.8501,210.82895 511.6987,162.39842 468.1112,121.97755 424.2443,81.18413 363.9856,46.91022 288.732,46.91022 Z M 154.6166,255.53407 a 134.11535,134.11535 0 1 1 268.2307,0 134.11535,134.11535 0 1 1 -268.2307,0 z M 288.732,195.92725 c 0,32.87689 -26.73,59.60682 -59.6069,59.60682 -6.6126,0 -12.9458,-1.11764 -18.9065,-3.07349 -5.1225,-1.67644 -11.0831,1.49017 -10.8969,6.89204 0.2794,6.42636 1.2108,12.85272 2.9804,19.27908 12.7596,47.68546 61.8421,75.99869 109.5275,63.2391 47.6854,-12.75958 75.9987,-61.84206 63.2391,-109.52751 -10.3381,-38.65129 -44.5188,-64.63614 -82.5182,-66.21944 -5.4018,-0.18627 -8.5685,5.68127 -6.892,10.89687 1.9558,5.96068 3.0735,12.2939 3.0735,18.90653 z"
     id="path1-5"
     style="display:inline;fill:#000000;stroke-width:0.931357" />
</svg>
